<svg xmlns="http://www.w3.org/2000/svg" viewBox="0 0 32 32" fill="none" aria-hidden="true">
  <rect width="32" height="32" rx="6" fill="#282a36"/>
  <!-- G (Gagnaire) : violet, dessiné en premier pour que la virgule passe derrière le F -->
  <g transform="translate(23, 6) scale(0.08) translate(-700, -480) translate(0, 1280) scale(0.1, -0.1)" fill="#bd93f9" stroke="none">
    <path d="M7125 8264 c-16 -2 -65 -9 -108 -15 -213 -29 -426 -110 -616 -236 -112 -74 -335 -297 -421 -421 -138 -197 -245 -421 -297 -620 -22 -87 -24 -111 -20 -232 3 -75 12 -162 21 -195 68 -254 252 -406 546 -450 294 -45 528 18 845 228 71 47 134 82 138 78 5 -5 -8 -41 -28 -80 -19 -40 -81 -178 -136 -309 -186 -438 -316 -677 -450 -826 -118 -131 -293 -241 -462 -290 -107 -31 -290 -48 -380 -36 -169 24 -295 116 -342 251 -19 53 -19 184 0 274 31 146 141 322 288 462 65 61 87 75 170 107 101 40 127 59 127 95 0 22 -2 22 -67 16 -335 -35 -665 -285 -756 -570 -31 -99 -31 -279 0 -380 83 -265 329 -380 773 -362 624 27 1041 370 1445 1192 86 174 342 736 385 846 10 26 16 56 13 67 -8 32 -64 45 -188 46 -138 1 -153 -7 -257 -136 -244 -303 -662 -536 -923 -515 -136 10 -261 101 -327 234 l-33 68 1 150 c1 211 41 391 137 614 90 210 192 364 337 511 202 204 412 305 661 317 106 5 125 3 210 -21 163 -47 269 -120 269 -185 0 -23 -10 -37 -49 -65 -104 -76 -134 -139 -111 -225 13 -51 69 -115 124 -143 101 -52 273 23 339 146 18 33 22 58 22 131 0 79 -4 97 -29 150 -45 92 -143 183 -257 239 -141 69 -224 88 -409 91 -85 2 -168 1 -185 -1z"/>
  </g>
  <!-- F (Florian) : cyan Dracula, potrace (au-dessus pour que la virgule du G passe derrière) -->
  <g transform="translate(23, 5) scale(0.028) translate(-1005, -138) translate(0, 1168) scale(0.1, -0.1)" fill="#8be9fd" stroke="none">
    <path d="M10625 11053 c-10 -3 -58 -22 -105 -43 -275 -121 -550 -170 -960 -170 -236 0 -482 7 -1325 40 -1174 45 -2089 57 -2475 31 -467 -30 -820 -75 -1165 -147 -1042 -218 -1804 -654 -2210 -1264 -372 -559 -441 -1367 -171 -1999 169 -393 535 -757 944 -936 645 -283 1474 -267 2375 45 282 97 609 248 882 407 l120 69 48 94 c34 66 46 101 42 118 -11 46 -129 221 -155 231 -35 14 -150 29 -173 23 -10 -3 -71 -34 -135 -69 -805 -446 -1510 -646 -2118 -603 -462 32 -790 167 -1068 438 -195 191 -319 413 -370 664 -73 358 -18 766 144 1063 242 442 757 776 1395 904 303 61 510 75 1018 68 489 -7 946 -31 1822 -97 143 -11 395 -28 560 -40 165 -11 336 -22 380 -25 258 -18 676 -36 1062 -47 713 -19 888 4 1104 148 89 59 186 151 429 405 214 224 295 319 331 389 48 93 19 233 -57 281 -35 21 -128 34 -169 22z"/>
    <path d="M9535 9631 c-44 -15 -208 -83 -364 -149 -243 -103 -290 -127 -328 -164 -207 -200 -377 -709 -643 -1928 -119 -545 -290 -1275 -371 -1582 l-31 -116 -87 -6 c-214 -15 -729 -29 -1338 -35 -648 -6 -663 -6 -683 -26 -28 -29 -93 -266 -81 -298 14 -36 28 -43 141 -70 359 -87 863 -144 1664 -189 l228 -12 -6 -43 c-10 -73 -116 -510 -172 -708 -387 -1365 -920 -2145 -1628 -2380 -132 -44 -250 -64 -416 -72 -223 -9 -373 17 -527 92 -119 59 -201 137 -249 239 -103 217 -52 471 147 739 136 181 493 522 901 861 l108 88 27 84 c27 82 27 85 10 117 -10 18 -46 63 -81 101 l-64 68 -63 -7 c-121 -13 -131 -18 -311 -152 -648 -486 -1119 -974 -1381 -1431 -161 -282 -251 -611 -232 -852 24 -320 159 -557 411 -725 253 -170 593 -221 954 -144 481 104 1132 471 1690 953 826 716 1451 1708 1852 2943 l63 193 35 -7 c73 -15 401 -8 505 11 210 38 361 94 500 184 217 141 328 299 342 487 7 88 -16 143 -71 169 -47 22 -159 21 -326 -4 -221 -33 -268 -39 -415 -50 -77 -6 -185 -15 -240 -19 -55 -5 -101 -8 -102 -7 -2 1 172 625 478 1716 191 679 340 1227 421 1545 58 231 71 295 72 365 1 73 -3 93 -24 134 -14 27 -42 63 -63 80 -55 44 -141 47 -252 7z"/>
  </g>
</svg>
